<svg id="Outlined" xmlns="http://www.w3.org/2000/svg" viewBox="0 0 158.68 149.34"><defs><style>.cls-1{fill:#eae9ee;}.cls-2{fill:#8e96a3;}.cls-3{fill:#6e737f;}.cls-4{fill:#fdbe16;}.cls-5{fill:#d94349;}</style></defs><title>cloud-menu-accountmanager-07</title><path class="cls-1" d="M1373.16,66.43a3.61,3.61,0,0,0,2.8-.83,5.69,5.69,0,0,0,1.79-4.11h0c.16-3.48-2.06-7.09-4.94-8.05a4.34,4.34,0,0,0-1.42-.25,3.54,3.54,0,0,0-2,.63,5.42,5.42,0,0,0-2,4.33C1367.11,62.17,1369.85,66,1373.16,66.43Z" transform="translate(-1275.33 -26.18)"/><path class="cls-1" d="M1389.43,124.3l-29.32,6.3a3.38,3.38,0,0,1-.63.07,3,3,0,0,1-.63-5.94l32.85-7.06,5.18-15-37.19,2.56h-.21a3,3,0,0,1-.2-6L1399,96.47l3.87-11.26h0l3.48-10.16.36-1.08.21-.31a13,13,0,0,1,4.08-4.91V53a5,5,0,0,0-3.3-4.67l-57.1-21.74a5.21,5.21,0,0,0-7.16,4.66V159.34a5.21,5.21,0,0,0,7.16,4.66l29-11Zm-35.18-41.53V77.58a11.69,11.69,0,0,1,6-10.38,10.86,10.86,0,0,1,3.71-1.21,14.28,14.28,0,0,1-2.12-8.1,10.83,10.83,0,0,1,4.43-8.61,9.35,9.35,0,0,1,8.31-1.06c5.23,1.74,9,7.56,8.69,13.52a11.74,11.74,0,0,1-1.91,6,8.47,8.47,0,0,1,3.78,2,11.5,11.5,0,0,1,3.46,8.34l0,5.27a2.74,2.74,0,0,1-2.74,2.76h0a2.75,2.75,0,0,1-2.75-2.74l0-5.27a6,6,0,0,0-1.69-4.32A3.05,3.05,0,0,0,1380,73l-.14,0a57,57,0,0,0-6.43-1,70.37,70.37,0,0,0-7.75-.62h-.12a5.22,5.22,0,0,0-2.68.65,6.18,6.18,0,0,0-3.11,5.55v5.19a2.75,2.75,0,0,1-2.74,2.75h0A2.75,2.75,0,0,1,1354.25,82.77Z" transform="translate(-1275.33 -26.18)"/><path class="cls-2" d="M1320.34,121.73a2.46,2.46,0,0,1-.53.06,2.5,2.5,0,0,1-.52-4.94l15.45-3.33.35,0V102L1320,103h-.17a2.5,2.5,0,0,1-.17-5l15.27-1h.18V53.2l-20.53-7.82a4.78,4.78,0,0,0-6.57,4.28v91.52a4.78,4.78,0,0,0,6.57,4.28l20.53-7.82V118.56Zm-3.65-35.52V82.39a8.73,8.73,0,0,1,4.15-7.61,7.29,7.29,0,0,1,2.57-.89,11,11,0,0,1-1.47-6,8,8,0,0,1,3.26-6.43,6.36,6.36,0,0,1,5.74-.67,2,2,0,0,1-1.33,3.77,2.32,2.32,0,0,0-2.17.22,4,4,0,0,0-1.5,3.29c-.15,3.2,2,5.88,4,6.13l.08,0,.55.06a2,2,0,0,1-.5,4,44.62,44.62,0,0,0-5.35-.45,3.4,3.4,0,0,0-1.87.45,4.69,4.69,0,0,0-2.15,4.13v3.83a2,2,0,0,1-2,2h0A2,2,0,0,1,1316.69,86.21Z" transform="translate(-1275.33 -26.18)"/><path class="cls-3" d="M1286.57,117.36a1.9,1.9,0,0,1-.4,0,1.88,1.88,0,0,1-.39-3.71l13.2-2.84a1.87,1.87,0,0,1,.4,0v-9.94l-13.08.9h-.13A1.88,1.88,0,0,1,1286,98l13.21-.91a.56.56,0,0,0,.13,0V58.4L1282.52,52a5.24,5.24,0,0,0-7.19,4.69v76.9a5.23,5.23,0,0,0,7.19,4.68l16.86-6.42V114.61Zm-3.14-30.19V83.84a7.78,7.78,0,0,1,3.44-6.69,6,6,0,0,1,2-.77,10,10,0,0,1-1.16-5.13,7.09,7.09,0,0,1,2.89-5.79,5.21,5.21,0,0,1,4.78-.49,1.88,1.88,0,1,1-1.33,3.51,1.43,1.43,0,0,0-1.38.11,3.45,3.45,0,0,0-1.21,2.81c-.12,2.73,1.51,5,3,5.19l.07,0,.44.06a1.87,1.87,0,0,1-.5,3.71,35.32,35.32,0,0,0-4.29-.39,2.23,2.23,0,0,0-1.33.35,4.09,4.09,0,0,0-1.67,3.5v3.32a1.88,1.88,0,0,1-1.87,1.88h0A1.88,1.88,0,0,1,1283.43,87.17Z" transform="translate(-1275.33 -26.18)"/><path class="cls-4" d="M1408.45,96.66,1387,159.07a3,3,0,0,0,0,1.79l3.72,13.22a2,2,0,0,0,2.47,1.37,2.09,2.09,0,0,0,.6-.29l11.07-8.11a3,3,0,0,0,1.06-1.44l21.47-62.43Z" transform="translate(-1275.33 -26.18)"/><path class="cls-5" d="M1430.61,93.71l3.18-9.26a4,4,0,0,0-2.48-5.07L1420,75.47a4,4,0,0,0-5.09,2.48h0l-3.17,9.25Z" transform="translate(-1275.33 -26.18)"/></svg>