<svg id="Layer_3" data-name="Layer 3" xmlns="http://www.w3.org/2000/svg" xmlns:xlink="http://www.w3.org/1999/xlink" viewBox="0 0 190 190"><defs><style>.cls-1{fill:none;}.cls-2{fill:#0260a0;}.cls-3{fill:#6e737f;}.cls-4{fill:#72a542;}.cls-5{fill:url(#New_Pattern_Swatch_2);}.cls-6{clip-path:url(#clip-path);}.cls-7{fill:#8e96a3;}</style><pattern id="New_Pattern_Swatch_2" data-name="New Pattern Swatch 2" width="58.67" height="58.67" patternUnits="userSpaceOnUse" viewBox="0 0 58.67 58.67"><rect class="cls-1" width="58.67" height="58.67"/><rect class="cls-2" width="58.67" height="58.67"/></pattern><clipPath id="clip-path"><path class="cls-1" d="M166.25,47.52,148.62,65.15s-9.06,4.2-18.1-4.85-4.85-18.1-4.85-18.1L143.3,24.58a2,2,0,0,0-1-3.39A35,35,0,0,0,102,66.46L34.31,134.15a15.62,15.62,0,0,0,0,22l.35.35a15.63,15.63,0,0,0,22,0l67.69-67.7a35,35,0,0,0,45.27-40.26A2,2,0,0,0,166.25,47.52Z"/></clipPath></defs><title>_icon</title><path class="cls-3" d="M166.25,47.52,148.62,65.15s-9.06,4.2-18.1-4.85-4.85-18.1-4.85-18.1L143.3,24.58a2,2,0,0,0-1-3.39A35,35,0,0,0,102,66.46L34.31,134.15a15.62,15.62,0,0,0,0,22l.35.35a15.63,15.63,0,0,0,22,0l67.69-67.7a35,35,0,0,0,45.27-40.26A2,2,0,0,0,166.25,47.52Z"/><path class="cls-4" d="M166.1,144.35a31.79,31.79,0,0,0-45-33.57,1,1,0,0,0-.53,1.17l1.83,6.94a1,1,0,0,0,1.43.63,22.3,22.3,0,0,1,6.23-2.28,22.7,22.7,0,0,1,27.28,23.64l-6.44-2.56a1,1,0,0,0-1.35,1.07l3.28,22.53a2,2,0,0,0,3.22,1.28L174,149.09a1,1,0,0,0-.25-1.71Z"/><path class="cls-5" d="M144.19,161.61a1,1,0,0,0-1.33-.8,22.75,22.75,0,0,1-30.52-16.69,22,22,0,0,1-.42-3.49l6.22,1.68a1,1,0,0,0,1.23-1.22l-5.84-22a2,2,0,0,0-3.34-.91l-16.14,16a1,1,0,0,0,.44,1.68l8.41,2.28A31.78,31.78,0,0,0,141,170.71a33.51,33.51,0,0,0,3.51-.94,1,1,0,0,0,.67-1.1Z"/><path class="cls-3" d="M31.37,60.28l16.58,8,19,19.14L80.09,74.23l-19-19.12-8-16.62a6,6,0,0,0-2.63-2.72L25.9,22.92a4,4,0,0,0-4.68.72l-4.29,4.29a4,4,0,0,0-.75,4.6l12.41,25A6,6,0,0,0,31.37,60.28Z"/><g class="cls-6"><path class="cls-7" d="M110.59,80.25a35.94,35.94,0,0,1-8.71-14.13L21.13,146.88l11.58,11.58,78-78.05S110.64,80.31,110.59,80.25Z"/></g></svg>