<svg id="Layer_3" data-name="Layer 3" xmlns="http://www.w3.org/2000/svg" viewBox="0 0 190 190"><defs><style>.cls-1{fill:#b8d7f1;}.cls-2{fill:#91c0dc;}.cls-3{fill:#fdbe16;}.cls-4{fill:#d94349;}</style></defs><title>_icon</title><path class="cls-1" d="M70.51,153.79,25.78,165a3.4,3.4,0,0,1-4.11-3.47V40.37a3.52,3.52,0,0,1,2.58-3.47L70.51,25.33Z"/><polygon class="cls-1" points="125.61 35.98 119.37 37.54 119.37 42.23 125.61 35.98"/><path class="cls-1" d="M120.2,98c-.26.27-.55.52-.83.76V166l46.26-11.56a3.54,3.54,0,0,0,2.58-3.48V50Z"/><path class="cls-2" d="M113.32,101.56,99.81,104a12.61,12.61,0,0,1-2.14.19,12,12,0,0,1-11.8-14.14l2.46-13.52a13,13,0,0,1,3.59-6.86l27.44-27.44V37.54L70.51,25.33V153.79L119.36,166V98.73A13,13,0,0,1,113.32,101.56Z"/><path class="cls-3" d="M145.67,30.07,99,76.74a3,3,0,0,0-.83,1.58L95.71,91.83A2,2,0,0,0,98,94.15l13.5-2.43a3,3,0,0,0,1.59-.83l46.68-46.68Z"/><path class="cls-4" d="M166.88,37.14l6.92-6.92a4,4,0,0,0,0-5.65l-8.49-8.49a4,4,0,0,0-5.66,0L152.74,23Z"/></svg>